<svg width="29" height="29" viewBox="0 0 29 29" fill="none" xmlns="http://www.w3.org/2000/svg">
<path d="M23.529 28.0614L14.5 19.0322L5.47099 28.0614C4.21935 29.3129 2.19021 29.3129 0.938567 28.0614C-0.312856 26.8098 -0.312856 24.7807 0.938567 23.529L9.9678 14.5L0.938567 5.47099C-0.312856 4.21935 -0.312856 2.19021 0.938567 0.938567C2.19021 -0.312856 4.21935 -0.312856 5.47099 0.938567L14.5 9.9678L23.529 0.938567C24.7807 -0.312856 26.8098 -0.312856 28.0614 0.938567C29.3129 2.19021 29.3129 4.21935 28.0614 5.47099L19.0322 14.5L28.0614 23.529C29.3129 24.7807 29.3129 26.8098 28.0614 28.0614C26.8098 29.3129 24.7807 29.3129 23.529 28.0614Z" fill="white"/>
</svg>
